<svg xmlns="http://www.w3.org/2000/svg" width="113.386" height="113.386" viewBox="0 0 113.386 113.386"><path fill="#3352A4" stroke="#000" stroke-miterlimit="10" d="M0 0h113.386v113.386h-113.386z"/><path fill="#fff" d="M96.814 43.14c-6.412-1.156-12.547 3.103-13.708 9.51 0 0 0 .004-.001.006 0 .003-.001.007-.001.01-.003.019-.006.039-.01.059-.215 1.221-3.411 17.578-20.012 14.589 0 0 39.366 11.122 43.204-10.184v-.002c.019-.092.036-.184.054-.279 1.157-6.417-3.11-12.554-9.526-13.709zm-66.536 17.408s.002-.002.002-.004v-.009c.005-.021.007-.042.011-.062.216-1.219 3.411-17.577 20.011-14.587 0 0-39.366-11.121-43.204 10.182 0 0 0 0 0 .002-.019.094-.036.188-.053.279-1.156 6.416 3.109 12.556 9.525 13.711 6.413 1.154 12.547-3.105 13.708-9.512zm35.055-29.555s.002.002.004.007c.003.001.005.001.007.004.015.013.031.023.046.037.939.809 13.365 11.917 2.31 24.659 0 0 29.682-28.153 13.332-42.341h-.004c-.069-.065-.139-.127-.211-.189-4.927-4.272-12.381-3.743-16.653 1.179-4.27 4.923-3.746 12.371 1.169 16.644zm-17.655 51.398s-.001-.002-.003-.004c-.003-.003-.005-.003-.007-.007-.016-.011-.03-.024-.045-.037-.94-.808-13.367-11.916-2.312-24.657 0 0-29.682 28.152-13.33 42.338 0 .004.002.004.002.004.07.062.14.126.213.188 4.924 4.273 12.381 3.746 16.653-1.182 4.269-4.919 3.743-12.37-1.171-16.643zm-7.762-47.591v.002s.003-.002.006-.002c.002-.002.004-.002.007-.004.018-.005.038-.012.057-.02 1.163-.423 16.938-5.802 22.62 10.079 0 0-9.976-39.674-30.358-32.383-.001 0-.001 0-.002.003-.091.027-.18.058-.27.09-6.138 2.198-9.334 8.953-7.139 15.092 2.195 6.136 8.942 9.332 15.079 7.143zm34.431 43.785s-.002 0-.006.002h-.007c-.019.009-.037.016-.056.022-1.165.423-16.94 5.803-22.622-10.08 0 0 9.976 39.675 30.358 32.384.001 0 .001 0 .002 0 .09-.031.179-.062.27-.092 6.138-2.197 9.336-8.953 7.139-15.095-2.195-6.131-8.944-9.33-15.078-7.141z"/></svg>