<svg xmlns="http://www.w3.org/2000/svg" width="113.386" height="113.386" viewBox="0 0 113.386 113.386"><path fill="#3352A4" stroke="#000" stroke-miterlimit="10" d="M0 0h113.386v113.386H0z"/><path fill="#fff" d="M96.814 43.14c-6.412-1.156-12.547 3.103-13.708 9.51 0 0 0 .004 0 .006 0 .003-.002.007-.002.01-.003.02-.006.04-.01.06-.215 1.22-3.41 17.577-20.012 14.588 0 0 39.366 11.122 43.204-10.184v-.002c.02-.092.036-.184.054-.28 1.157-6.416-3.11-12.553-9.526-13.708zM30.278 60.548s.002-.002.002-.004v-.01c.005-.02.007-.04.01-.06.217-1.22 3.412-17.578 20.012-14.588 0 0-39.366-11.12-43.204 10.182 0 0 0 0 0 .002-.02.094-.036.188-.053.28-1.156 6.415 3.11 12.555 9.525 13.71 6.413 1.154 12.547-3.105 13.708-9.512zm35.055-29.555s.002.002.004.007c.003 0 .005 0 .007.004.015.013.03.023.046.037.94.81 13.365 11.92 2.31 24.66 0 0 29.682-28.15 13.332-42.34h-.004c-.07-.06-.14-.12-.21-.19-4.928-4.27-12.382-3.74-16.654 1.18-4.27 4.93-3.746 12.37 1.17 16.65zM47.678 82.39s0 0-.003-.003-.005-.003-.007-.007c-.016-.01-.03-.024-.045-.037-.94-.808-13.367-11.916-2.312-24.657 0 0-29.68 28.152-13.33 42.338 0 .004.01.004.01.004.07.062.14.126.218.188 4.924 4.273 12.38 3.746 16.653-1.182 4.27-4.92 3.743-12.37-1.17-16.643zM39.916 34.8v.002s.003-.002.006-.002c.002-.002.004-.002.007-.004.01-.005.03-.012.05-.02 1.16-.423 16.94-5.802 22.62 10.08 0 0-9.98-39.675-30.36-32.384 0 0 0 0 0 .003-.09.027-.18.058-.27.09-6.14 2.198-9.34 8.953-7.14 15.092 2.19 6.136 8.94 9.332 15.08 7.143zm34.43 43.785s0 0-.005.002c-.02.01-.03.016-.05.022-1.165.42-16.94 5.8-22.622-10.08 0 0 9.977 39.67 30.36 32.38.09-.03.18-.06.27-.09 6.14-2.2 9.337-8.96 7.14-15.1-2.195-6.13-8.944-9.33-15.08-7.14z"/></svg>